# xmcd
#
# Track frame offsets:
#	150
#	4466
#	18722
#	36330
#	56495
#	72757
#	87926
#	103094
#	120867
#	141184
#	161552
#	179005
#	196247
#	199010
#	216080
#	233565
#	251532
#	266111
#	284718
#
# Disc length: 4044 seconds
#
# Revision: 1
# Processed by: cddbd v1.5.1PL2 Copyright (c) Steve Scherf et al.
# Submitted via: audiograbber 1.83.01
#
DISCID=1a0fca13
DTITLE=Fler - Trendsetter
DYEAR=2006
DGENRE=Rap
TTITLE0=Pacino Intro
TTITLE1=Papa ist Zurück
TTITLE2=Der Guteste feat. G-Hot
TTITLE3=Ich bleib wie ich bin
TTITLE4=Die Schule brennt
TTITLE5=A.G.G.R.O GEE
TTITLE6=Ich scheine
TTITLE7=Vatermorgana
TTITLE8=Am Abzug feat. Deso Dogg
TTITLE9=Breakdance feat. G-Hot
TTITLE10=Nick bis dein Genick bricht feat. G-Hot
TTITLE11=Meine Homies
TTITLE12=Skit
TTITLE13=Backstage feat. B-Tight and Alpa Gun
TTITLE14=Zeit ist Geld feat. Bass Sultan Hengzt
TTITLE15=Reich so Reich
TTITLE16=Cüs Junge feat. Muhabbet
TTITLE17=Böser Engel
TTITLE18=Verrückt wie krass feat. Sido
EXTD=
EXTT0=
EXTT1=
EXTT2=
EXTT3=
EXTT4=
EXTT5=
EXTT6=
EXTT7=
EXTT8=
EXTT9=
EXTT10=
EXTT11=
EXTT12=
EXTT13=
EXTT14=
EXTT15=
EXTT16=
EXTT17=
EXTT18=
PLAYORDER=
